<svg width="240" height="240" viewBox="0 0 240 240" fill="none" xmlns="http://www.w3.org/2000/svg">
<rect width="240" height="240" rx="120" fill="#1A4EFF"/>
<path d="M143.152 117.522C143.152 117.523 143.152 117.523 143.151 117.524C140.526 122.264 133.644 122.401 130.943 117.524C130.943 117.523 130.942 117.523 130.942 117.522L121.741 102.528C120.939 101.223 119.059 101.223 118.258 102.528L109.057 117.522C109.056 117.523 109.056 117.523 109.056 117.524C106.355 122.401 99.4725 122.264 96.8476 117.524C96.8476 117.523 96.8469 117.523 96.8461 117.522L89.1055 104.908C96.2633 111.437 101.139 103.589 101.139 103.589C106.021 95.6582 113.357 83.7893 113.877 82.9471C116.527 78.0584 123.506 78.1219 126.121 82.9471C126.642 83.7893 133.978 95.6583 138.86 103.589C138.86 103.589 143.736 111.437 150.893 104.908L143.152 117.522Z" fill="white"/>
<path d="M155.287 97.7988L150.893 104.908C143.736 111.437 138.861 103.589 138.861 103.589C138.286 102.655 137.676 101.665 137.048 100.646C141.95 92.6918 143.101 90.9372 143.101 90.9372C143.102 90.9365 143.102 90.9357 143.102 90.9351C144.981 87.5412 149.233 86.327 152.598 88.2226C155.961 90.1176 157.166 94.4057 155.287 97.7988Z" fill="url(#paint0_linear_12_1490)"/>
<path d="M84.7126 97.7988L89.1058 104.908C96.2631 111.437 101.138 103.589 101.138 103.589C101.714 102.655 102.323 101.665 102.951 100.646C98.0487 92.6918 96.8981 90.9372 96.8981 90.9372C96.8974 90.9365 96.8974 90.9357 96.8971 90.9351C95.0176 87.5412 90.7665 86.327 87.4015 88.2226C84.0375 90.1176 82.8327 94.4057 84.7126 97.7988Z" fill="url(#paint1_linear_12_1490)"/>
<path d="M194.456 160.265C193.485 160.265 192.616 159.661 192.277 158.751L184.656 138.261C184.092 136.743 185.215 135.127 186.835 135.127H188.622C189.58 135.127 190.44 135.715 190.788 136.608L198.766 157.097C199.359 158.621 198.235 160.265 196.6 160.265H194.456ZM176.554 160.265C174.918 160.265 173.794 158.621 174.388 157.097L182.366 136.608C182.714 135.715 183.574 135.127 184.532 135.127H186.319C187.939 135.127 189.062 136.743 188.497 138.261L180.876 158.751C180.538 159.661 179.669 160.265 178.698 160.265H176.554ZM180.081 156.243C178.797 156.243 177.756 155.202 177.756 153.918V152.713C177.756 151.43 178.797 150.389 180.081 150.389H193.11C194.393 150.389 195.434 151.43 195.434 152.713V153.918C195.434 155.202 194.393 156.243 193.11 156.243H180.081Z" fill="white"/>
<path d="M175.865 160.265C174.894 160.265 174.025 159.661 173.687 158.751L166.066 138.261C165.501 136.743 166.624 135.127 168.244 135.127H170.031C170.989 135.127 171.849 135.715 172.197 136.608L180.175 157.097C180.768 158.621 179.644 160.265 178.009 160.265H175.865ZM157.963 160.265C156.328 160.265 155.204 158.621 155.797 157.097L163.775 136.608C164.123 135.715 164.983 135.127 165.941 135.127H167.728C169.348 135.127 170.471 136.743 169.906 138.261L162.285 158.751C161.947 159.661 161.078 160.265 160.107 160.265H157.963ZM161.49 156.243C160.206 156.243 159.165 155.202 159.165 153.918V152.713C159.165 151.43 160.206 150.389 161.49 150.389H174.519C175.802 150.389 176.843 151.43 176.843 152.713V153.918C176.843 155.202 175.802 156.243 174.519 156.243H161.49Z" fill="white"/>
<path d="M149.81 160.265C148.561 160.265 147.549 159.253 147.549 158.004V143.493C147.549 142.244 146.537 141.232 145.288 141.232H142.578C141.33 141.232 140.317 140.219 140.317 138.971V137.388C140.317 136.139 141.33 135.127 142.578 135.127H159.24C160.489 135.127 161.501 136.139 161.501 137.388V138.971C161.501 140.219 160.489 141.232 159.24 141.232H156.567C155.318 141.232 154.306 142.244 154.306 143.493V158.004C154.306 159.253 153.294 160.265 152.045 160.265H149.81Z" fill="white"/>
<path d="M131.559 160.696C130.366 160.696 129.197 160.54 128.052 160.229C126.908 159.894 125.861 159.439 124.911 158.864C123.986 158.29 123.219 157.643 122.61 156.925V156.925C121.666 155.774 122.597 154.296 124.033 153.904L126.364 153.269C127.422 152.981 128.513 153.616 129.367 154.303V154.303C129.903 154.71 130.597 154.938 131.449 154.986C132.131 155.01 132.727 154.83 133.239 154.447C133.774 154.064 134.042 153.561 134.042 152.939C134.042 152.532 133.884 152.149 133.567 151.79C133.275 151.407 132.8 151.131 132.143 150.964L128.308 149.994C126.993 149.659 125.861 149.144 124.911 148.45C123.986 147.756 123.268 146.906 122.756 145.9C122.269 144.895 122.026 143.769 122.026 142.524C122.026 140.059 122.854 138.143 124.51 136.779C126.19 135.39 128.539 134.696 131.559 134.696C133.166 134.696 134.578 134.899 135.795 135.306C137.037 135.713 138.096 136.36 138.973 137.245C139.087 137.355 139.199 137.469 139.308 137.587C140.619 139.006 139.572 141.121 137.714 141.65L136.196 142.082C135.276 142.344 134.265 141.777 133.567 141.124V141.124C133.081 140.645 132.411 140.406 131.559 140.406C130.731 140.406 130.086 140.585 129.623 140.944C129.185 141.303 128.965 141.83 128.965 142.524C128.965 142.955 129.148 143.338 129.513 143.674C129.879 143.985 130.402 144.224 131.084 144.392L134.955 145.361C136.903 145.84 138.425 146.786 139.521 148.198C140.617 149.587 141.164 151.179 141.164 152.975C141.164 154.627 140.775 156.027 139.996 157.176C139.241 158.326 138.145 159.199 136.709 159.798C135.272 160.396 133.555 160.696 131.559 160.696Z" fill="white"/>
<path d="M108.381 160.695C105.703 160.695 103.329 160.145 101.259 159.044C99.2135 157.918 97.6065 156.386 96.4377 154.447C95.2689 152.484 94.6846 150.245 94.6846 147.731C94.6846 145.194 95.2689 142.955 96.4377 141.016C97.6065 139.053 99.2135 137.521 101.259 136.419C103.304 135.294 105.654 134.731 108.308 134.731C110.986 134.731 113.348 135.294 115.394 136.419C117.439 137.521 119.046 139.053 120.215 141.016C121.383 142.955 121.968 145.194 121.968 147.731C121.968 150.245 121.383 152.484 120.215 154.447C119.07 156.386 117.475 157.918 115.43 159.044C113.385 160.145 111.035 160.695 108.381 160.695ZM108.381 154.591C109.696 154.591 110.852 154.303 111.851 153.729C112.849 153.13 113.628 152.316 114.188 151.287C114.748 150.257 115.028 149.072 115.028 147.731C115.028 146.391 114.736 145.206 114.152 144.176C113.592 143.123 112.8 142.309 111.778 141.734C110.779 141.136 109.623 140.836 108.308 140.836C107.017 140.836 105.861 141.136 104.838 141.734C103.84 142.309 103.049 143.123 102.464 144.176C101.904 145.206 101.624 146.391 101.624 147.731C101.624 149.072 101.916 150.257 102.501 151.287C103.085 152.316 103.876 153.13 104.875 153.729C105.897 154.303 107.066 154.591 108.381 154.591Z" fill="white"/>
<path d="M87.8751 160.696C85.1967 160.696 82.8227 160.145 80.753 159.044C78.7077 157.919 77.1006 156.386 75.9319 154.447C74.7631 152.484 74.1787 150.245 74.1787 147.732C74.1787 145.194 74.7631 142.955 75.9319 141.016C77.1006 139.053 78.7077 137.521 80.753 136.42C82.7983 135.294 85.148 134.732 87.8021 134.732C90.4805 134.732 92.8424 135.294 94.8877 136.42C96.933 137.521 98.5401 139.053 99.7088 141.016C100.878 142.955 101.462 145.194 101.462 147.732C101.462 150.245 100.878 152.484 99.7088 154.447C98.5644 156.386 96.9695 157.919 94.9242 159.044C92.8789 160.145 90.5292 160.696 87.8751 160.696ZM87.8751 154.591C89.19 154.591 90.3466 154.303 91.3449 153.729C92.3432 153.13 93.1224 152.316 93.6824 151.287C94.2424 150.257 94.5224 149.072 94.5224 147.732C94.5224 146.391 94.2303 145.206 93.6459 144.176C93.0858 143.123 92.2945 142.309 91.2718 141.734C90.2735 141.136 89.1169 140.837 87.8021 140.837C86.5116 140.837 85.355 141.136 84.3323 141.734C83.334 142.309 82.5427 143.123 81.9583 144.176C81.3982 145.206 81.1182 146.391 81.1182 147.732C81.1182 149.072 81.4104 150.257 81.9948 151.287C82.5792 152.316 83.3705 153.13 84.3688 153.729C85.3915 154.303 86.5603 154.591 87.8751 154.591Z" fill="white"/>
<path d="M65.3945 160.265C63.9723 160.265 62.9389 158.913 63.3118 157.541L68.969 136.719C69.2244 135.779 70.0777 135.127 71.0517 135.127H73.426C74.8651 135.127 75.9011 136.509 75.4977 137.89L69.4169 158.712C69.1481 159.632 68.3042 160.265 67.3453 160.265H65.3945ZM48.9594 160.265C48.0004 160.265 47.1565 159.632 46.8877 158.712L40.807 137.89C40.4035 136.509 41.4395 135.127 42.8787 135.127H45.2529C46.2269 135.127 47.0802 135.779 47.3356 136.719L52.9928 157.541C53.3657 158.913 52.3323 160.265 50.9101 160.265H48.9594ZM51.1109 160.265C49.7008 160.265 48.6695 158.935 49.0207 157.569L54.3753 136.747C54.6206 135.794 55.4806 135.127 56.4655 135.127H58.0025C59.4113 135.127 60.4424 136.455 60.0934 137.82L54.769 158.641C54.5247 159.597 53.6641 160.265 52.6781 160.265H51.1109ZM63.6266 160.265C62.6405 160.265 61.7799 159.597 61.5356 158.641L56.2112 137.82C55.8622 136.455 56.8933 135.127 58.3022 135.127H59.8624C60.8364 135.127 61.6898 135.779 61.9451 136.719L67.6023 157.541C67.9752 158.913 66.9418 160.265 65.5196 160.265H63.6266Z" fill="white"/>
<defs>
<linearGradient id="paint0_linear_12_1490" x1="146.611" y1="107.504" x2="146.611" y2="87.3277" gradientUnits="userSpaceOnUse">
<stop stop-color="#4D75FF"/>
<stop offset="1" stop-color="white"/>
</linearGradient>
<linearGradient id="paint1_linear_12_1490" x1="93.3882" y1="107.504" x2="93.3882" y2="87.3277" gradientUnits="userSpaceOnUse">
<stop stop-color="#4D75FF"/>
<stop offset="1" stop-color="white"/>
</linearGradient>
</defs>
</svg>
