<svg width="38" height="22" viewBox="0 0 38 22" fill="none" xmlns="http://www.w3.org/2000/svg">
<path d="M31.1611 20.089C31.1607 20.0894 31.1607 20.0897 31.1603 20.0901C29.7815 22.5796 26.1669 22.6519 24.7482 20.0901C24.7482 20.0897 24.7478 20.0894 24.7478 20.089L19.9148 12.2138C19.4938 11.5283 18.5065 11.5283 18.0857 12.2138L13.2527 20.089C13.2523 20.0894 13.2521 20.0897 13.2521 20.0901C11.8335 22.6519 8.21866 22.5796 6.83994 20.0901C6.83994 20.0897 6.8396 20.0894 6.83917 20.089L2.7735 13.4638C6.53306 16.8932 9.09404 12.7708 9.09404 12.7708C11.6582 8.60534 15.5114 2.37136 15.7846 1.92901C17.1761 -0.638724 20.8421 -0.605386 22.2156 1.92901C22.4891 2.37136 26.3421 8.60543 28.9066 12.7708C28.9066 12.7708 31.4673 16.8932 35.2266 13.4638L31.1611 20.089Z" fill="#1A4EFF"/>
<path d="M37.5339 9.72961L35.2264 13.4638C31.4671 16.8932 28.9064 12.7708 28.9064 12.7708C28.6043 12.2802 28.284 11.7602 27.9542 11.2252C30.5292 7.04723 31.1336 6.12564 31.1336 6.12564C31.1339 6.1253 31.1339 6.12487 31.1341 6.12452C32.1213 4.34192 34.3541 3.70419 36.1216 4.69985C37.8884 5.69518 38.5213 7.94744 37.5339 9.72961Z" fill="url(#paint0_linear_12_660)"/>
<path d="M0.466074 9.72962L2.77355 13.4638C6.53286 16.8932 9.09358 12.7708 9.09358 12.7708C9.39568 12.2802 9.71598 11.7602 10.0458 11.2252C7.47076 7.04723 6.86639 6.12564 6.86639 6.12564C6.86605 6.1253 6.86605 6.12487 6.86588 6.12452C5.87869 4.34192 3.64586 3.70419 1.87844 4.69986C0.111531 5.69518 -0.521283 7.94744 0.466074 9.72962Z" fill="url(#paint1_linear_12_660)"/>
<defs>
<linearGradient id="paint0_linear_12_660" x1="32.9771" y1="14.827" x2="32.9771" y2="4.22979" gradientUnits="userSpaceOnUse">
<stop stop-color="#8CA6FF"/>
<stop offset="1" stop-color="#1A4EFF"/>
</linearGradient>
<linearGradient id="paint1_linear_12_660" x1="5.02288" y1="14.827" x2="5.02288" y2="4.22979" gradientUnits="userSpaceOnUse">
<stop stop-color="#8CA6FF"/>
<stop offset="1" stop-color="#1A4EFF"/>
</linearGradient>
</defs>
</svg>
